{
    "accessors" : [
        {
            "bufferView" : 0, 
            "componentType" : 5123, 
            "count" : 1638, 
            "max" : [
                280
            ], 
            "min" : [
                0
            ], 
            "type" : "SCALAR"
        }, 
        {
            "bufferView" : 1, 
            "componentType" : 5126, 
            "count" : 281, 
            "max" : [
                0.057805415242910385, 
                0.08254437893629074, 
                0.07925067096948624
            ], 
            "min" : [
                -0.0543491505086422, 
                -0.05735217407345772, 
                -0.09532518684864044
            ], 
            "type" : "VEC3"
        }, 
        {
            "bufferView" : 2, 
            "componentType" : 5126, 
            "count" : 281, 
            "max" : [
                0.99920654296875, 
                0.9985350966453552, 
                0.9984435439109802
            ], 
            "min" : [
                -0.99981689453125, 
                -0.9881588220596313, 
                -0.99993896484375
            ], 
            "type" : "VEC3"
        }, 
        {
            "bufferView" : 3, 
            "componentType" : 5126, 
            "count" : 281, 
            "max" : [
                0.293963223695755, 
                0.4320716857910156
            ], 
            "min" : [
                0.06692519783973694, 
                0.2020817995071411
            ], 
            "type" : "VEC2"
        }, 
        {
            "bufferView" : 4, 
            "componentType" : 5121, 
            "count" : 330, 
            "max" : [
                185
            ], 
            "min" : [
                0
            ], 
            "type" : "SCALAR"
        }, 
        {
            "bufferView" : 5, 
            "componentType" : 5126, 
            "count" : 186, 
            "max" : [
                0.026729490607976913, 
                0.05838288366794586, 
                -0.062457919120788574
            ], 
            "min" : [
                -0.05199189856648445, 
                -0.05171909183263779, 
                -0.12272042781114578
            ], 
            "type" : "VEC3"
        }, 
        {
            "bufferView" : 6, 
            "componentType" : 5126, 
            "count" : 186, 
            "max" : [
                0.9989318251609802, 
                0.9715567231178284, 
                1.0
            ], 
            "min" : [
                -0.9981078505516052, 
                -0.9687795639038086, 
                -0.999969482421875
            ], 
            "type" : "VEC3"
        }, 
        {
            "bufferView" : 7, 
            "componentType" : 5126, 
            "count" : 186, 
            "max" : [
                0.2842692732810974, 
                0.8423399478197098
            ], 
            "min" : [
                0.13285690546035767, 
                0.6909275650978088
            ], 
            "type" : "VEC2"
        }
    ], 
    "asset" : {
        "generator" : "Khronos Blender glTF 2.0 exporter", 
        "version" : "2.0"
    }, 
    "bufferViews" : [
        {
            "buffer" : 0, 
            "byteLength" : 3276, 
            "byteOffset" : 0, 
            "target" : 34963
        }, 
        {
            "buffer" : 0, 
            "byteLength" : 3372, 
            "byteOffset" : 3276, 
            "target" : 34962
        }, 
        {
            "buffer" : 0, 
            "byteLength" : 3372, 
            "byteOffset" : 6648, 
            "target" : 34962
        }, 
        {
            "buffer" : 0, 
            "byteLength" : 2248, 
            "byteOffset" : 10020, 
            "target" : 34962
        }, 
        {
            "buffer" : 0, 
            "byteLength" : 330, 
            "byteOffset" : 12268, 
            "target" : 34963
        }, 
        {
            "buffer" : 0, 
            "byteLength" : 2232, 
            "byteOffset" : 12600, 
            "target" : 34962
        }, 
        {
            "buffer" : 0, 
            "byteLength" : 2232, 
            "byteOffset" : 14832, 
            "target" : 34962
        }, 
        {
            "buffer" : 0, 
            "byteLength" : 1488, 
            "byteOffset" : 17064, 
            "target" : 34962
        }
    ], 
    "buffers" : [
        {
            "byteLength" : 18552, 
            "uri" : "data:application/octet-stream;base64,"
        }
    ], 
    "images" : [
        {
            "uri" : "data:image/png;base64,"
        }, 
        {
            "uri" : "data:image/png;base64,"
        }
    ], 
    "materials" : [
        {
            "name" : "Material", 
            "pbrMetallicRoughness" : {
                "baseColorTexture" : {
                    "index" : 1
                }, 
                "metallicRoughnessTexture" : {
                    "index" : 0
                }
            }
        }
    ], 
    "meshes" : [
        {
            "name" : "Hand", 
            "primitives" : [
                {
                    "attributes" : {
                        "NORMAL" : 2, 
                        "POSITION" : 1, 
                        "TEXCOORD_0" : 3
                    }, 
                    "indices" : 0, 
                    "material" : 0
                }
            ]
        }, 
        {
            "name" : "Band", 
            "primitives" : [
                {
                    "attributes" : {
                        "NORMAL" : 6, 
                        "POSITION" : 5, 
                        "TEXCOORD_0" : 7
                    }, 
                    "indices" : 4, 
                    "material" : 0
                }
            ]
        }
    ], 
    "nodes" : [
        {
            "mesh" : 1, 
            "name" : "Band"
        }, 
        {
            "mesh" : 0, 
            "name" : "Hand"
        }
    ], 
    "samplers" : [
        {}
    ], 
    "scene" : 0, 
    "scenes" : [
        {
            "name" : "Scene", 
            "nodes" : [
                0, 
                1
            ]
        }
    ], 
    "textures" : [
        {
            "sampler" : 0, 
            "source" : 0
        }, 
        {
            "sampler" : 0, 
            "source" : 1
        }
    ]
}
